<?xml version="1.0" encoding="UTF-8"?>
<svg id="Layer_1" xmlns="http://www.w3.org/2000/svg" version="1.1" viewBox="0 0 300 104.99">
  <!-- Generator: Adobe Illustrator 29.7.0, SVG Export Plug-In . SVG Version: 2.1.1 Build 138)  -->
  <defs>
    <style>
      .st0 {
        fill: #593636;
      }

      .st1 {
        fill: #bc9866;
      }
    </style>
  </defs>
  <path class="st1" d="M65.82,85.85l-1.48-2.55h-.98v2.55h-.81v-6.23h2.01c.47,0,.87.08,1.19.24.33.16.57.38.73.65.16.28.24.59.24.94,0,.43-.12.81-.37,1.14-.25.33-.62.55-1.11.65l1.56,2.61h-.98ZM63.35,82.65h1.2c.44,0,.77-.11.99-.33.22-.22.33-.51.33-.87s-.11-.65-.33-.86c-.22-.2-.55-.3-1-.3h-1.2v2.36Z"/>
  <polygon class="st1" points="71.64 80.28 71.64 82.36 73.91 82.36 73.91 83.03 71.64 83.03 71.64 85.18 74.18 85.18 74.18 85.84 70.83 85.84 70.83 79.61 74.18 79.61 74.18 80.28 71.64 80.28"/>
  <path class="st1" d="M79.15,85.69c-.33-.15-.58-.35-.76-.61s-.28-.56-.29-.9h.87c.03.29.15.54.36.74.21.2.52.3.92.3.39,0,.69-.1.91-.29.22-.19.34-.44.34-.75l-.2-.58-.49-.34c-.2-.08-.46-.16-.8-.25-.41-.11-.74-.21-.99-.32l-.64-.51c-.18-.23-.26-.54-.26-.92,0-.34.09-.64.26-.9.17-.26.42-.46.73-.61.31-.14.67-.22,1.08-.22.58,0,1.06.15,1.44.44.37.29.58.68.63,1.16h-.89l-.38-.63c-.22-.18-.51-.27-.87-.27-.34,0-.62.09-.83.26-.21.18-.32.42-.32.74l.19.55.48.33c.19.08.45.16.79.26.41.11.74.22.99.33l.64.51c.18.23.27.54.27.93,0,.3-.08.59-.24.86-.16.27-.4.49-.71.65-.31.17-.69.25-1.12.25s-.78-.07-1.1-.22"/>
  <rect class="st1" x="86.38" y="79.62" width=".81" height="6.23"/>
  <path class="st1" d="M95.14,80c.5.25.88.62,1.14,1.09.26.47.4,1.03.4,1.66s-.13,1.19-.4,1.66c-.26.47-.65.83-1.14,1.07s-1.09.37-1.77.37h-1.94v-6.23h1.94c.68,0,1.27.13,1.77.38M95.22,84.54c.42-.43.64-1.02.64-1.79s-.21-1.38-.64-1.82c-.42-.43-1.04-.65-1.84-.65h-1.12v4.9h1.12c.8,0,1.42-.21,1.84-.64"/>
  <polygon class="st1" points="101.43 80.28 101.43 82.36 103.7 82.36 103.7 83.03 101.43 83.03 101.43 85.18 103.97 85.18 103.97 85.84 100.62 85.84 100.62 79.61 103.97 79.61 103.97 80.28 101.43 80.28"/>
  <polygon class="st1" points="112.96 85.85 112.14 85.85 108.87 80.89 108.87 85.85 108.06 85.85 108.06 79.61 108.87 79.61 112.14 84.56 112.14 79.61 112.96 79.61 112.96 85.85"/>
  <path class="st1" d="M117.31,81.09c.27-.49.65-.87,1.12-1.14.47-.28,1-.41,1.58-.41.68,0,1.27.17,1.78.49.51.33.87.79,1.11,1.39h-.98c-.17-.37-.42-.66-.74-.87-.33-.2-.71-.3-1.17-.3s-.82.1-1.17.3c-.35.2-.62.49-.82.86-.2.37-.3.81-.3,1.31s.1.93.3,1.3c.2.37.47.66.82.86.35.2.73.3,1.17.3s.84-.1,1.17-.3c.32-.2.57-.49.74-.86h.98c-.23.6-.6,1.06-1.11,1.38-.51.32-1.1.49-1.78.49-.58,0-1.1-.13-1.58-.41-.48-.27-.85-.65-1.12-1.13s-.41-1.03-.41-1.64.14-1.15.41-1.64"/>
  <polygon class="st1" points="127.77 80.28 127.77 82.36 130.04 82.36 130.04 83.03 127.77 83.03 127.77 85.18 130.31 85.18 130.31 85.84 126.96 85.84 126.96 79.61 130.31 79.61 130.31 80.28 127.77 80.28"/>
  <path class="st1" d="M135.28,85.69c-.33-.15-.58-.35-.76-.61s-.28-.56-.29-.9h.87c.03.29.15.54.36.74.21.2.52.3.92.3.39,0,.69-.1.91-.29.22-.19.34-.44.34-.75l-.2-.58-.49-.34c-.2-.08-.46-.16-.8-.25-.41-.11-.74-.21-.99-.32l-.64-.51c-.18-.23-.26-.54-.26-.92,0-.34.09-.64.26-.9.17-.26.42-.46.73-.61.31-.14.67-.22,1.08-.22.58,0,1.06.15,1.43.44.37.29.58.68.63,1.16h-.89l-.38-.63c-.22-.18-.51-.27-.87-.27-.34,0-.62.09-.83.26-.21.18-.32.42-.32.74l.19.55.48.33c.19.08.45.16.79.26.41.11.74.22.99.33l.64.51c.18.23.27.54.27.93,0,.3-.08.59-.24.86-.16.27-.4.49-.71.65-.31.17-.69.25-1.12.25s-.78-.07-1.1-.22"/>
  <path class="st0" d="M63.4,72.89c1.1-.57,1.91-2.01,1.91-3.49v-27.66c-.76-1.39-1.72-2.68-2.77-3.21v-.1h7.71l13.5,25.22,11.3-25.22h7.44v.1c-1.19.53-1.96,1.91-1.96,3.49v27.38c0,1.58.77,2.97,1.96,3.49v.1h-8.85v-.1c1.15-.57,1.96-2.01,1.96-3.49v-28.52l-12.78,28.52h-1.55l-14.36-26.71v26.71c0,1.58.81,2.97,2.01,3.49v.1h-5.51v-.1Z"/>
  <path class="st0" d="M123.53,38.43c10.37,0,15.95,6.79,15.95,17.21s-5.58,17.35-15.95,17.35-16.05-6.93-16.05-17.35,5.63-17.21,16.05-17.21M123.53,71.54c7.49,0,11.16-6.09,11.16-15.45s-3.67-16.15-11.16-16.15-11.26,6.78-11.26,16.15,3.72,15.45,11.26,15.45"/>
  <path class="st0" d="M144.61,72.89c1.15-.57,1.91-2.01,1.91-3.49v-27.66c-.72-1.39-2.39-2.68-3.45-3.21v-.1h7.95l17.37,25.75v-22.16c0-1.48-.77-2.92-1.91-3.49v-.1h5.48v.1c-1.2.53-1.96,1.91-1.96,3.49v30.97h-1.65l-20.25-29.96v26.37c0,1.58.76,2.97,1.96,3.49v.1h-5.46v-.1Z"/>
  <path class="st0" d="M202.59,69.4l-10.1-27.38c-.82-2.2-2.11-3.59-2.92-3.59h-5.28c1.19.68,1.98,1.88,1.98,3.26,0,.51-.11,1-.3,1.44l-8.95,26.27c-.48,1.39-1.22,2.92-2.37,3.49v.1h4.64v-.1c-1.46-.66-.6-3.06-.46-3.49l2.6-7.73h12.89l3.06,7.73c.14.48.96,2.4-.96,3.49v.1h8.66v-.1c-1.19-.91-1.87-1.91-2.49-3.49M181.95,60.09l5.7-16.73,6.46,16.73h-12.17Z"/>
  <path class="st0" d="M236.16,72.99h-.57c-7.37,0-7.37-.05-9.29-3.59l-6.08-10.15h-4.88v11.64c0,.82.91,1.63,2.3,1.96v.14h-9.14v-.14c1.15-.33,1.91-1.15,1.91-1.96v-30.92c0-.67-.76-1.2-1.91-1.44v-.1h11.2c8.23,0,13.64,3.88,13.64,9.72,0,4.79-2.97,8.23-7.75,9.48l6.27,11.77c.67,1.2,2.25,3.16,4.31,3.49v.1ZM227.93,48.15c0-5.55-3.35-8.38-8.28-8.38h-2.3c-1.53,0-2.01.77-2.01,1.96v15.94h6.03c5.17,0,6.56-5.12,6.56-9.52"/>
  <path class="st0" d="M267.88,46.15l-2.84,4.05c-.42-6.14-4.6-10.73-9.86-10.73-6,0-10.33,6.18-10.33,15.66s4.33,15.95,11.26,15.95c4.84,0,9.07-3.12,11.58-7.49-1.49,3.86-6.98,9.39-14.19,9.39-8.19,0-13.95-7.26-13.95-16.7,0-10.7,7.35-17.86,15.49-17.86,5.58,0,10.46,3.35,12.84,7.72"/>
  <path class="st0" d="M272.81,72.89c1.15-.57,1.91-2.01,1.91-3.49v-27.38c0-1.48-.76-2.92-1.91-3.49v-.1h8.86v.1c-1.2.53-2.01,1.91-2.01,3.49v13.23h13.4v-13.23c0-1.48-.76-2.92-1.91-3.49v-.1h8.86v.1c-1.2.53-2.01,1.91-2.01,3.49v27.38c0,1.58.81,2.97,2.01,3.49v.1h-8.86v-.1c1.15-.57,1.91-2.01,1.91-3.49v-12.57h-13.4v12.57c0,1.58.81,2.97,2.01,3.49v.1h-8.86v-.1Z"/>
  <path class="st1" d="M27.66,104.99l6.26-5.51c1.21-1.07,1.9-2.6,1.9-4.21v-56.26l-6.26,5.52c-1.21,1.06-1.9,2.6-1.9,4.21v56.26Z"/>
  <path class="st1" d="M41.61,94.6l6.14-5.4c1.29-1.14,2.03-2.77,2.03-4.49v-33.76l-6.14,5.4c-1.29,1.14-2.03,2.77-2.03,4.49v33.76Z"/>
  <path class="st1" d="M22.11,104.99l-6.26-5.51c-1.21-1.07-1.9-2.6-1.9-4.21v-56.26l6.26,5.52c1.21,1.06,1.9,2.6,1.9,4.21v56.26Z"/>
  <path class="st1" d="M8.16,94.6l-6.14-5.4c-1.29-1.14-2.03-2.77-2.03-4.49v-33.76l6.14,5.4c1.29,1.14,2.03,2.77,2.03,4.49v33.76Z"/>
  <path class="st1" d="M27.66,65.99l6.26-5.51c1.21-1.07,1.9-2.6,1.9-4.21V0l-6.26,5.52c-1.21,1.06-1.9,2.6-1.9,4.21v56.26Z"/>
  <path class="st1" d="M41.61,54.65l6.14-5.4c1.29-1.14,2.03-2.77,2.03-4.49V11l-6.14,5.4c-1.29,1.14-2.03,2.77-2.03,4.49v33.76Z"/>
  <path class="st1" d="M22.11,65.99l-6.26-5.51c-1.21-1.07-1.9-2.6-1.9-4.21V0l6.26,5.52c1.21,1.06,1.9,2.6,1.9,4.21v56.26Z"/>
  <path class="st1" d="M8.16,54.65l-6.14-5.4c-1.29-1.14-2.03-2.77-2.03-4.49V11l6.14,5.4c1.29,1.14,2.03,2.77,2.03,4.49v33.76Z"/>
  <rect class="st1" x="142.65" y="85.2" width="157.35" height=".64"/>
  <path class="st0" d="M64.58,31.39c-.63-.29-1.12-.69-1.48-1.2-.36-.51-.55-1.09-.57-1.72h1.32c.06.61.33,1.14.81,1.6.48.46,1.17.69,2.09.69.85,0,1.52-.22,2.01-.65.49-.43.74-.99.74-1.65,0-.54-.14-.97-.41-1.3-.28-.33-.61-.57-1.02-.73-.4-.16-.96-.34-1.68-.53-.83-.22-1.5-.45-1.98-.66-.49-.21-.91-.55-1.25-1-.35-.45-.52-1.07-.52-1.84,0-.64.17-1.22.5-1.73.33-.51.8-.9,1.41-1.19.61-.29,1.31-.43,2.09-.43,1.16,0,2.09.28,2.8.85.71.57,1.12,1.3,1.23,2.19h-1.36c-.08-.51-.36-.97-.84-1.37-.48-.4-1.12-.6-1.93-.6-.75,0-1.37.2-1.88.6-.5.4-.75.94-.75,1.64,0,.53.13.95.41,1.27.27.32.62.57,1.03.73.41.17.97.35,1.67.54.81.23,1.47.45,1.97.67.5.22.92.56,1.27,1.01.35.45.52,1.06.52,1.82,0,.58-.15,1.14-.47,1.66-.31.53-.77.95-1.37,1.27-.61.32-1.34.48-2.18.48s-1.55-.14-2.17-.43"/>
  <path class="st0" d="M76.53,19.19v7.87c0,1.24.3,2.16.89,2.75.59.6,1.4.89,2.42.89s1.82-.3,2.4-.89c.58-.59.87-1.51.87-2.76v-7.87h1.25v7.85c0,1.59-.42,2.78-1.26,3.58-.84.8-1.93,1.2-3.28,1.2s-2.44-.4-3.28-1.2c-.84-.8-1.26-1.99-1.26-3.58v-7.85h1.25Z"/>
  <polygon class="st0" points="98.72 31.69 97.47 31.69 90.55 21.18 90.55 31.69 89.3 31.69 89.3 19.19 90.55 19.19 97.47 29.69 97.47 19.19 98.72 19.19 98.72 31.69"/>
  <path class="st0" d="M103.94,22.13c.54-.97,1.27-1.73,2.2-2.27.93-.54,1.97-.81,3.11-.81,1.39,0,2.59.33,3.58.99,1,.66,1.72,1.59,2.17,2.8h-1.47c-.36-.85-.9-1.51-1.64-1.98-.73-.48-1.62-.71-2.65-.71-.92,0-1.74.21-2.48.64-.73.43-1.31,1.05-1.73,1.85-.42.8-.62,1.74-.62,2.8s.21,1.99.62,2.79c.42.8.99,1.41,1.73,1.84.73.43,1.56.64,2.48.64,1.04,0,1.92-.24,2.65-.71.73-.47,1.28-1.12,1.64-1.96h1.47c-.45,1.19-1.18,2.12-2.18,2.77-1,.65-2.19.98-3.58.98-1.14,0-2.18-.27-3.11-.82-.93-.54-1.66-1.3-2.2-2.26-.54-.97-.8-2.06-.8-3.29s.27-2.32.8-3.3"/>
  <rect class="st0" x="119.64" y="19.19" width="1.25" height="12.5"/>
  <polygon class="st0" points="133.19 19.19 133.19 20.23 129.72 20.23 129.72 31.69 128.47 31.69 128.47 20.23 124.98 20.23 124.98 19.19 133.19 19.19"/>
  <polygon class="st0" points="145.58 19.19 141.57 26.83 141.57 31.69 140.32 31.69 140.32 26.83 136.28 19.19 137.7 19.19 140.95 25.68 144.19 19.19 145.58 19.19"/>
  <polygon class="st0" points="149.71 19.19 151.16 19.19 149.58 23.06 148.67 23.06 149.71 19.19"/>
  <path class="st0" d="M156.84,31.39c-.63-.29-1.12-.69-1.48-1.2-.36-.51-.55-1.09-.57-1.72h1.32c.06.61.33,1.14.81,1.6.48.46,1.17.69,2.09.69.85,0,1.52-.22,2.01-.65.49-.43.74-.99.74-1.65,0-.54-.14-.97-.41-1.3-.28-.33-.61-.57-1.02-.73-.4-.16-.96-.34-1.68-.53-.83-.22-1.5-.45-1.98-.66-.49-.21-.91-.55-1.25-1-.35-.45-.52-1.07-.52-1.84,0-.64.17-1.22.5-1.73.33-.51.8-.9,1.41-1.19.61-.29,1.31-.43,2.09-.43,1.16,0,2.09.28,2.8.85.71.57,1.12,1.3,1.23,2.19h-1.36c-.08-.51-.36-.97-.84-1.37-.48-.4-1.12-.6-1.93-.6-.75,0-1.37.2-1.87.6-.5.4-.75.94-.75,1.64,0,.53.14.95.41,1.27.27.32.62.57,1.03.73.41.17.97.35,1.67.54.81.23,1.47.45,1.97.67.5.22.92.56,1.27,1.01.35.45.52,1.06.52,1.82,0,.58-.15,1.14-.47,1.66-.31.53-.77.95-1.37,1.27-.61.32-1.34.48-2.18.48s-1.55-.14-2.17-.43"/>
</svg>