<?xml version="1.0" encoding="UTF-8"?>
<svg id="Layer_1" xmlns="http://www.w3.org/2000/svg" version="1.1" viewBox="0 0 300 104.99">
  <!-- Generator: Adobe Illustrator 29.7.0, SVG Export Plug-In . SVG Version: 2.1.1 Build 138)  -->
  <defs>
    <style>
      .st0 {
        fill-rule: evenodd;
      }

      .st0, .st1 {
        fill: #bb9956;
      }

      .st2 {
        fill: #3f444f;
      }
    </style>
  </defs>
  <path class="st1" d="M91.14,15.83C81.33,6.02,68.28.62,54.4.62S27.48,6.02,17.67,15.83C7.85,25.65,2.45,38.7,2.45,52.57s5.4,26.93,15.22,36.74,22.86,15.22,36.74,15.22,26.92-5.4,36.74-15.22c9.81-9.81,15.22-22.86,15.22-36.74s-5.4-26.92-15.22-36.74M54.4,101.35c-26.9,0-48.78-21.88-48.78-48.78S27.51,3.8,54.4,3.8s48.78,21.88,48.78,48.77-21.88,48.78-48.78,48.78"/>
  <polygon class="st0" points="39.98 97 42.99 42.45 36.62 42.42 39.98 97"/>
  <polygon class="st0" points="47.03 99.42 50.04 23.35 43.66 23.43 47.03 99.42"/>
  <polygon class="st0" points="54.41 101.15 57.75 7.93 51.38 7.92 54.41 101.15"/>
  <polygon class="st0" points="61.78 99.42 65.15 23.43 58.77 23.35 61.78 99.42"/>
  <polygon class="st0" points="65.81 42.45 68.84 97 72.18 42.43 65.81 42.45"/>
  <path class="st1" d="M91.14,15.67C81.32,5.86,68.28.46,54.4.46S27.48,5.86,17.66,15.67C7.85,25.48,2.45,38.53,2.45,52.41s5.4,26.92,15.21,36.74c9.81,9.81,22.86,15.22,36.74,15.22s26.92-5.4,36.74-15.22c9.81-9.81,15.21-22.86,15.21-36.74s-5.4-26.92-15.21-36.73M54.4,101.18c-26.89,0-48.77-21.88-48.77-48.77S27.51,3.64,54.4,3.64s48.77,21.88,48.77,48.77-21.88,48.77-48.77,48.77"/>
  <path class="st2" d="M113.1,25.43c0-4.08.97-7.21,2.92-9.4,1.94-2.18,4.86-3.28,8.75-3.28s6.81,1.1,8.75,3.28c1.94,2.18,2.92,5.32,2.92,9.4v1.95h-7.49v-2.45c0-1.82-.35-3.11-1.04-3.85-.7-.74-1.67-1.12-2.92-1.12s-2.22.38-2.92,1.12c-.7.75-1.04,2.03-1.04,3.85s.38,3.26,1.15,4.57c.76,1.32,1.73,2.57,2.88,3.74,1.15,1.18,2.39,2.36,3.71,3.53,1.32,1.18,2.56,2.46,3.71,3.85,1.15,1.39,2.11,2.98,2.88,4.75.77,1.78,1.15,3.86,1.15,6.26,0,4.08-1,7.22-2.99,9.4-1.99,2.18-4.94,3.27-8.82,3.27s-6.83-1.09-8.82-3.27c-1.99-2.18-2.99-5.32-2.99-9.4v-3.45h7.49v3.96c0,1.83.37,3.1,1.12,3.82.74.72,1.74,1.08,2.99,1.08s2.24-.36,2.99-1.08,1.12-1.99,1.12-3.82c0-1.73-.39-3.25-1.15-4.57-.77-1.32-1.73-2.57-2.88-3.74-1.15-1.18-2.39-2.35-3.71-3.53-1.32-1.17-2.56-2.46-3.71-3.85-1.15-1.39-2.11-2.98-2.88-4.75-.77-1.78-1.15-3.87-1.15-6.27"/>
  <path class="st2" d="M149.33,13.33v38.89c0,1.82.37,3.1,1.12,3.82.74.72,1.74,1.08,2.99,1.08s2.25-.36,2.99-1.08c.74-.72,1.12-1.99,1.12-3.82V13.33h7.49v38.39c0,4.08-1,7.21-2.99,9.4-1.99,2.18-4.93,3.28-8.82,3.28s-6.83-1.09-8.82-3.28c-1.99-2.19-2.99-5.32-2.99-9.4V13.33h7.92Z"/>
  <polygon class="st2" points="178.21 27.23 178.21 63.75 171.08 63.75 171.08 13.33 181.02 13.33 189.16 43.51 189.16 13.33 196.22 13.33 196.22 63.75 188.08 63.75 178.21 27.23"/>
  <path class="st2" d="M225.6,44.95v6.7c0,4.08-1,7.22-2.99,9.4-1.99,2.18-4.93,3.27-8.82,3.27s-6.83-1.09-8.82-3.27-2.99-5.32-2.99-9.4v-26.22c0-4.08,1-7.21,2.99-9.4s4.93-3.28,8.82-3.28,6.83,1.1,8.82,3.28c1.99,2.18,2.99,5.32,2.99,9.4v4.9h-7.49v-5.4c0-1.82-.37-3.11-1.12-3.85-.75-.74-1.74-1.12-2.99-1.12s-2.25.38-2.99,1.12c-.74.75-1.12,2.03-1.12,3.85v27.23c0,1.83.37,3.1,1.12,3.82.74.72,1.74,1.08,2.99,1.08s2.24-.36,2.99-1.08c.74-.72,1.12-1.99,1.12-3.82v-7.2h7.49Z"/>
  <rect class="st2" x="231.14" y="13.33" width="7.92" height="50.42"/>
  <polygon class="st2" points="243.39 13.33 267.88 13.33 267.88 20.53 259.59 20.53 259.59 63.75 251.67 63.75 251.67 20.53 243.39 20.53 243.39 13.33"/>
  <polygon class="st2" points="279.62 47.04 269.6 13.33 277.89 13.33 283.94 36.31 289.99 13.33 297.55 13.33 287.54 47.04 287.54 63.75 279.62 63.75 279.62 47.04"/>
  <path class="st2" d="M115.61,72.11h8.52c4.37,0,7.35,2.44,7.35,6.5,0,4.39-3.19,6.66-7.51,6.66h-5.06v8.91h-3.29v-22.06ZM118.9,82.55h4.83c2.87,0,4.39-1.36,4.39-3.86s-1.8-3.86-4.28-3.86h-4.94v7.72Z"/>
  <path class="st2" d="M142.85,84.62v9.54h-3.23v-22.06h8.82c4.58,0,7.03,2.5,7.03,5.93,0,2.88-1.64,4.59-3.66,5.19,1.67.47,3.25,1.78,3.25,5.63v.97c0,1.52-.05,3.39.3,4.34h-3.16c-.4-.95-.39-2.66-.39-4.78v-.44c0-3-.84-4.32-4.72-4.32h-4.25ZM142.85,81.9h4.65c3.23,0,4.62-1.22,4.62-3.57s-1.46-3.51-4.33-3.51h-4.94v7.08Z"/>
  <path class="st2" d="M183.76,83.02c0,6.08-3.45,11.46-10.45,11.46-6.57,0-10.2-5.02-10.2-11.35s3.76-11.35,10.47-11.35c6.26,0,10.18,4.64,10.18,11.23M166.54,83.04c0,4.68,2.33,8.68,6.92,8.68,4.95,0,6.89-4.09,6.89-8.66s-2.19-8.52-6.9-8.52-6.91,3.87-6.91,8.5"/>
  <path class="st2" d="M197.42,87.61c0,5-1.9,6.87-5.81,6.87-.88,0-1.8-.08-2.45-.24v-2.69c.42.08,1.37.14,2.07.14,2.57,0,2.92-1.87,2.92-3.95v-15.64h3.28v15.5Z"/>
  <polygon class="st2" points="221.19 84.01 210.3 84.01 210.3 91.39 222.27 91.39 221.86 94.17 207.1 94.17 207.1 72.11 221.71 72.11 221.71 74.88 210.3 74.88 210.3 81.24 221.19 81.24 221.19 84.01"/>
  <path class="st2" d="M248.09,87.81c-.96,3.81-3.81,6.64-8.92,6.64-6.67,0-10-4.99-10-11.23s3.35-11.43,10.13-11.43c5.33,0,8.16,3.06,8.79,6.75h-3.27c-.73-2.27-2.24-4.06-5.64-4.06-4.69,0-6.59,4.26-6.59,8.63s1.78,8.66,6.72,8.66c3.35,0,4.74-1.97,5.49-3.96h3.29Z"/>
  <polygon class="st2" points="261.16 74.88 254.11 74.88 254.11 72.11 271.5 72.11 271.5 74.88 264.45 74.88 264.45 94.17 261.16 94.17 261.16 74.88"/>
  <path class="st2" d="M280.7,87.97c.58,2.56,2.35,3.91,5.42,3.91,3.27,0,4.58-1.5,4.58-3.5,0-2.13-1.08-3.29-5.38-4.32-5.35-1.29-7.09-3.14-7.09-6.22,0-3.39,2.5-6.05,7.49-6.05,5.37,0,7.56,3.06,7.86,6.02h-3.32c-.37-1.85-1.5-3.43-4.65-3.43-2.54,0-3.99,1.13-3.99,3.13s1.19,2.75,4.99,3.67c6.32,1.53,7.48,3.96,7.48,6.85,0,3.65-2.71,6.43-8.19,6.43s-8.05-2.98-8.52-6.49h3.32Z"/>
</svg>